<svg width="10" height="22" viewBox="0 0 10 22" fill="none" xmlns="http://www.w3.org/2000/svg">
<path d="M5 21.5L0.0050505 16.2436L1.42727 14.7492L5 18.4985L8.57071 14.7492L10 16.2489L5 21.5ZM1.42727 7.25076L0 5.75L5 0.5L9.99394 5.7553L8.57172 7.24864L5 3.50045L1.42828 7.2497L1.42727 7.25076Z" fill="#E3F2FD"/>
<path fill-rule="evenodd" clip-rule="evenodd" d="M5 8.5C5.79565 8.5 6.55871 8.81607 7.12132 9.37868C7.68393 9.94129 8 10.7044 8 11.5C8 12.2956 7.68393 13.0587 7.12132 13.6213C6.55871 14.1839 5.79565 14.5 5 14.5C4.20435 14.5 3.44129 14.1839 2.87868 13.6213C2.31607 13.0587 2 12.2956 2 11.5C2 10.7044 2.31607 9.94129 2.87868 9.37868C3.44129 8.81607 4.20435 8.5 5 8.5ZM5 10.5C5.26522 10.5 5.51957 10.6054 5.70711 10.7929C5.89464 10.9804 6 11.2348 6 11.5C6 11.7652 5.89464 12.0196 5.70711 12.2071C5.51957 12.3946 5.26522 12.5 5 12.5C4.73478 12.5 4.48043 12.3946 4.29289 12.2071C4.10536 12.0196 4 11.7652 4 11.5C4 11.2348 4.10536 10.9804 4.29289 10.7929C4.48043 10.6054 4.73478 10.5 5 10.5Z" fill="#E3F2FD"/>
</svg>
