<svg width="637" height="517" viewBox="0 0 637 517" fill="none" xmlns="http://www.w3.org/2000/svg">
<path fill-rule="evenodd" clip-rule="evenodd" d="M262.32 508.35C196.353 482.865 194.799 397.454 150.861 345.163C105.001 290.583 5.16463 263.637 0.861984 197.181C-3.41505 131.12 84.1593 105.12 140.362 67.0599C183.803 37.6415 228.435 12.8787 283.335 5.8907C331.518 -0.242388 383.286 -6.25018 427.475 16.3694C469.04 37.6451 475.453 88.5144 507.748 120.762C547.213 160.169 625.403 173.27 635.861 224.447C646.065 274.386 583.782 305.38 553.661 345.448C522.398 387.033 503.616 436.783 456.376 463.197C398.878 495.347 328.106 533.766 262.32 508.35Z" fill="url(#paint0_linear_1050_3549)"/>
<defs>
<linearGradient id="paint0_linear_1050_3549" x1="454.898" y1="524.101" x2="252.984" y2="-12.4754" gradientUnits="userSpaceOnUse">
<stop stop-color="#F28344"/>
<stop offset="1" stop-color="#F0C767"/>
</linearGradient>
</defs>
</svg>
