<svg width="29" height="28" viewBox="0 0 29 28" fill="none" xmlns="http://www.w3.org/2000/svg">
<path d="M19.1667 18.6666C21.744 18.6666 23.8333 16.5773 23.8333 14C23.8333 11.4227 21.744 9.33331 19.1667 9.33331C16.5893 9.33331 14.5 11.4227 14.5 14C14.5 16.5773 16.5893 18.6666 19.1667 18.6666Z" fill="#19BCFE"/>
<path fill-rule="evenodd" clip-rule="evenodd" d="M9.83317 28C11.0708 28 12.2578 27.5084 13.133 26.6332C14.0082 25.758 14.4998 24.571 14.4998 23.3334V18.6667H9.83317C8.59549 18.6667 7.40851 19.1584 6.53334 20.0335C5.65817 20.9087 5.1665 22.0957 5.1665 23.3334C5.1665 24.571 5.65817 25.758 6.53334 26.6332C7.40851 27.5084 8.59549 28 9.83317 28Z" fill="#09CF83"/>
<path fill-rule="evenodd" clip-rule="evenodd" d="M9.83317 18.6666H14.4998V9.33331H9.83317C8.59549 9.33331 7.40851 9.82498 6.53334 10.7001C5.65817 11.5753 5.1665 12.7623 5.1665 14C5.1665 15.2377 5.65817 16.4246 6.53334 17.2998C7.40851 18.175 8.59549 18.6666 9.83317 18.6666Z" fill="#A259FF"/>
<path fill-rule="evenodd" clip-rule="evenodd" d="M9.83317 9.33333H14.4998V0H9.83317C8.59549 0 7.40851 0.491665 6.53334 1.36684C5.65817 2.242 5.1665 3.42899 5.1665 4.66667C5.1665 5.90434 5.65817 7.09133 6.53334 7.9665C7.40851 8.84167 8.59549 9.33333 9.83317 9.33333Z" fill="#F24E1E"/>
<path fill-rule="evenodd" clip-rule="evenodd" d="M19.1667 9.33333H14.5V0H19.1667C20.4043 0 21.5913 0.491665 22.4665 1.36684C23.3417 2.242 23.8333 3.42899 23.8333 4.66667C23.8333 5.90434 23.3417 7.09133 22.4665 7.9665C21.5913 8.84167 20.4043 9.33333 19.1667 9.33333Z" fill="#FF7262"/>
</svg>
