<svg width="23" height="25" viewBox="0 0 23 25" fill="none" xmlns="http://www.w3.org/2000/svg">
<path fill-rule="evenodd" clip-rule="evenodd" d="M15.1836 23.3299C17.3624 22.7185 19.6436 22.41 21.8565 22.1275C22.3331 22.0682 22.7756 22.3988 22.8097 22.8645C22.8778 23.3306 22.5371 23.7568 22.0945 23.8161C19.9497 24.0881 17.737 24.3792 15.6603 24.9678C15.2178 25.0955 14.7409 24.8326 14.6048 24.3805C14.4686 23.9288 14.741 23.4579 15.1836 23.3299Z" fill="#E3F2FD"/>
<path fill-rule="evenodd" clip-rule="evenodd" d="M8.57929 14.661C12.0859 11.0826 16.035 7.96485 19.4735 4.29043C19.7799 3.94726 20.3246 3.92888 20.6651 4.24923C21.0055 4.56993 21.0394 5.1092 20.699 5.45236C17.2605 9.13733 13.3113 12.2653 9.80476 15.8543C9.46431 16.1893 8.91974 16.1941 8.57929 15.8645C8.27289 15.5353 8.23885 14.996 8.57929 14.661Z" fill="#E3F2FD"/>
<path fill-rule="evenodd" clip-rule="evenodd" d="M2.0081 0.89733C1.90597 2.94544 1.80403 4.99355 1.7019 7.04201C1.7019 7.51114 1.29317 7.87337 0.816549 7.85056C0.339929 7.82741 -0.000314713 7.42807 -0.000314713 6.9586C0.101818 4.90708 0.203752 2.8559 0.305885 0.804728C0.339929 0.335595 0.748527 -0.0242543 1.22515 0.00127899C1.66772 0.0268123 2.04214 0.428538 2.0081 0.89733Z" fill="#E3F2FD"/>
</svg>
