<svg width="153" height="46" viewBox="0 0 153 46" fill="none" xmlns="http://www.w3.org/2000/svg">
<path d="M103.51 8.05543C113.884 11.9308 82.4889 22.1865 71.8805 25.2399C52.112 30.9551 56.418 32.0907 63.6599 30.0943C66.2435 29.3897 73.8377 27.3933 80.4925 25.6709C100.731 20.4254 106.133 18.4286 109.695 15.0621C117.759 7.42871 94.8197 -1.37902 74.6207 1.55689C47.8452 5.47144 10.5789 20.1122 2.35835 26.2581C-1.59533 29.2331 -1.0082 31.3466 10.618 26.4142C52.4643 8.52478 86.6383 1.75301 103.51 8.05543Z" fill="#F89084"/>
<path d="M149.233 10.8737C146.767 11.8132 141.756 13.8487 136.276 16.2366C81.6285 40.037 38.686 49.5106 40.9564 37.4538C41.9742 31.9343 56.5363 20.3473 66.9099 16.7068C70.5504 15.415 68.1234 14.0445 64.9134 14.7882C58.5327 16.2758 44.9884 23.5964 40.0952 28.8027C33.6363 35.7314 35.0847 41.9947 43.7749 44.774C53.6004 47.9057 85.9345 41.8769 107.308 32.8734C113.18 30.4073 142.852 16.511 150.72 12.5965C154.87 10.6001 151.151 10.1691 149.233 10.8737Z" fill="#F89084"/>
</svg>
