<svg width="160" height="103" viewBox="0 0 160 103" fill="none" xmlns="http://www.w3.org/2000/svg">
<path fill-rule="evenodd" clip-rule="evenodd" d="M74.89 87.0557C92.9462 96.8399 113.597 104.027 134.072 102.619C141.522 102.107 148.418 99.959 155.498 97.8233C155.995 97.6743 156.278 97.1479 156.129 96.6487C155.978 96.1496 155.451 95.8665 154.952 96.018C148.009 98.1114 141.249 100.235 133.943 100.736C113.759 102.124 93.4131 94.9774 75.6301 85.3124L75.7567 85.0268C77.1399 81.9302 76.2832 77.4105 74.0234 72.6674C70.7851 65.8681 64.7557 58.5622 59.3296 54.5268C56.891 52.714 54.5542 51.5617 52.6272 51.3209C51.1248 51.1321 49.836 51.4699 48.8401 52.3688C46.7194 54.286 46.7939 57.5565 48.4751 61.3485C51.989 69.2802 62.3096 79.725 67.907 83.075C69.6552 84.1204 71.4333 85.1485 73.2387 86.1493C73.0102 86.7006 72.7842 87.2395 72.5408 87.7535C71.843 89.2162 70.9863 90.4951 69.3349 91.3717C66.7597 92.735 63.673 92.9709 60.5142 92.6183C55.5848 92.0645 50.4816 90.0605 46.7244 88.3396C25.8 78.754 15.4371 62.1282 9.8795 45.4379C4.26971 28.5812 3.53465 11.645 1.87332 1.65468C1.78888 1.14064 1.30216 0.795459 0.78811 0.879892C0.274065 0.964324 -0.073597 1.45105 0.0133188 1.9651C1.68459 12.02 2.44197 29.0655 8.0915 46.0339C13.7932 63.1688 24.459 80.2142 45.9371 90.0555C49.8508 91.8485 55.1701 93.9171 60.3031 94.4932C63.8567 94.8905 67.3209 94.5727 70.2189 93.038C72.819 91.6598 73.852 89.5092 74.89 87.0557ZM73.9712 84.3986L74.0358 84.257C75.2452 81.5502 74.2965 77.6266 72.3198 73.4795C69.2082 66.9459 63.4196 59.9206 58.2022 56.0416C56.4142 54.7106 54.7032 53.7545 53.1983 53.3522C51.9567 53.0219 50.8789 53.0691 50.1066 53.7694C49.3741 54.4275 49.0835 55.3339 49.0959 56.3893C49.1083 57.6285 49.5206 59.0514 50.1985 60.5836C53.5758 68.2049 63.4966 78.2375 68.8755 81.4558C70.5467 82.4541 72.2453 83.4375 73.9712 84.3986Z" fill="#E3F2FD"/>
<path fill-rule="evenodd" clip-rule="evenodd" d="M157.892 94.9037C157.81 95.3085 157.535 95.8176 157.232 96.3615C156.511 97.6578 155.486 99.0385 155.029 99.709C154.736 100.141 154.85 100.727 155.28 101.02C155.712 101.313 156.298 101.201 156.591 100.769C157.15 99.9474 158.513 98.1047 159.246 96.5775C159.638 95.758 159.842 95.0006 159.797 94.4567C159.722 93.5305 158.99 92.9518 157.537 92.9866C155.819 93.0288 152.627 93.8905 149.955 92.855C149.471 92.6663 148.922 92.9096 148.736 93.3939C148.547 93.8806 148.788 94.427 149.275 94.6157C151.823 95.6016 154.793 95.1272 156.792 94.9286C157.172 94.8913 157.624 94.8963 157.892 94.9037Z" fill="#E3F2FD"/>
</svg>
